<?xml version="1.0" standalone="no"?><!DOCTYPE svg PUBLIC "-//W3C//DTD SVG 1.1//EN" "http://www.w3.org/Graphics/SVG/1.1/DTD/svg11.dtd"><svg t="1752136422849" class="icon" viewBox="0 0 1024 1024" version="1.1" xmlns="http://www.w3.org/2000/svg" p-id="2448" xmlns:xlink="http://www.w3.org/1999/xlink" width="64" height="64"><path d="M793 411.3l-32.1-32.1c-10.4-10.4-24.6-16.3-39.4-16.3-14.8 0-28.9 5.9-39.4 16.3l-0.5 0.5L415.2 155c0.2-2.1 0.3-4.2 0.3-6.3 0-14.8-5.9-28.9-16.3-39.4l-27.1-27.1C361.7 71.8 347.5 66 332.8 66c-14.8 0-29 5.9-39.4 16.3L83.6 292.1c-10.4 10.4-16.3 24.6-16.3 39.4 0 14.8 5.9 28.9 16.3 39.4l27.1 27.1c10.9 10.9 25.1 16.3 39.4 16.3 2.1 0 4.2-0.1 6.3-0.3L381 680.2l-0.5 0.5c-10.5 10.4-16.3 24.6-16.3 39.4 0 14.8 5.9 28.9 16.3 39.4l32.1 32.1c10.9 10.9 25.1 16.3 39.4 16.3s28.5-5.4 39.4-16.3L793 490.1c21.7-21.8 21.7-57 0-78.8zM452 752.2l-32.1-32.1 36.7-36.7-0.2-0.2 121.1-121.1c7.3-7.3 7.3-19 0-26.3-7.3-7.3-19-7.3-26.3 0l-118.8 119L191 368.5l96.5-96.5c7.3-7.2 7.3-19 0-26.2-7.2-7.3-19-7.3-26.3 0l-112 111.9-26.2-26.2 209.8-209.8 26.4 26.4c-0.3 0.2-0.6 0.4-0.9 0.7l-40 40c-7.2 7.3-7.2 19 0 26.3 3.6 3.6 8.4 5.4 13.1 5.4 4.7 0 9.5-1.8 13.1-5.4l25.3-25.4L656 431.2l-38.7 38.7c-7.3 7.3-7.3 19 0 26.3 3.6 3.6 8.4 5.4 13.1 5.4 4.8 0 9.5-1.8 13.1-5.4l40.9-40.9 0.2 0.2 36.7-36.7 32.1 32.1L452 752.2zM948.4 907.7L712.8 672.1c-10.9-10.9-28.5-10.9-39.4 0-10.9 10.9-10.9 28.5 0 39.4L909 947.1c5.4 5.4 12.6 8.1 19.7 8.1s14.2-2.7 19.7-8.1c10.9-10.9 10.9-28.6 0-39.4z" p-id="2449"></path></svg>
